<svg xmlns="http://www.w3.org/2000/svg" width="26.533" height="26.533" viewBox="0 0 26.533 26.533">
  <path id="icon_cart" d="M8.96,23.227a2.653,2.653,0,1,0,2.653,2.653A2.65,2.65,0,0,0,8.96,23.227ZM1,2V4.653H3.653L8.429,14.723l-1.791,3.25a2.565,2.565,0,0,0-.332,1.274A2.661,2.661,0,0,0,8.96,21.9H24.88V19.247H9.517a.328.328,0,0,1-.332-.332l.04-.159,1.194-2.162H20.3a2.641,2.641,0,0,0,2.322-1.366l4.749-8.61a1.3,1.3,0,0,0,.159-.637,1.331,1.331,0,0,0-1.327-1.327H6.585L5.338,2H1ZM22.227,23.227A2.653,2.653,0,1,0,24.88,25.88,2.65,2.65,0,0,0,22.227,23.227Z" transform="translate(-1 -2)" fill="#998641"/>
</svg>
